# xmcd
# 
# Track frame offsets:
#     150
#     18449
#     35734
#     53639
# 
# Disc length: 1011
# 
# Revision: 0
# Processed by: cddbd v1.5.2PL0 Copyright (c) Steve Scherf et al.
# Submitted via: fre:ac v1.0.17
# 
DISCID=2b03f104
DTITLE=Floating Cloud Acoustic Band - CARNIVAL
DYEAR=0
DGENRE=
TTITLE0=風穴カーニバル
TTITLE1=白銀が舞い踊る
TTITLE2=祭事
TTITLE3=御霊遷
EXTD=
EXTT0=
EXTT1=
EXTT2=
EXTT3=
PLAYORDER=
